<?xml version="1.0" encoding="UTF-8"?>
<svg width="1440" height="180" viewBox="0 0 1440 180" fill="none" xmlns="http://www.w3.org/2000/svg">
  <path fill-rule="evenodd" clip-rule="evenodd" d="M0 180H1440V80C1400 80 1380 40 1360 40C1340 40 1320 60 1300 60C1280 60 1260 30 1240 30C1220 30 1200 70 1180 70C1160 70 1140 50 1120 50C1100 50 1080 90 1060 90C1040 90 1020 60 1000 60C980 60 960 80 940 80C920 80 900 50 880 50C860 50 840 70 820 70C800 70 780 40 760 40C740 40 720 60 700 60C680 60 660 30 640 30C620 30 600 80 580 80C560 80 540 50 520 50C500 50 480 70 460 70C440 70 420 40 400 40C380 40 360 90 340 90C320 90 300 60 280 60C260 60 240 80 220 80C200 80 180 50 160 50C140 50 120 70 100 70C80 70 60 40 40 40C20 40 0 80 0 80V180Z" fill="#4CAF50" fill-opacity="0.1"/>
  <path fill-rule="evenodd" clip-rule="evenodd" d="M0 180H1440V100C1400 100 1380 60 1360 60C1340 60 1320 80 1300 80C1280 80 1260 50 1240 50C1220 50 1200 90 1180 90C1160 90 1140 70 1120 70C1100 70 1080 110 1060 110C1040 110 1020 80 1000 80C980 80 960 100 940 100C920 100 900 70 880 70C860 70 840 90 820 90C800 90 780 60 760 60C740 60 720 80 700 80C680 80 660 50 640 50C620 50 600 100 580 100C560 100 540 70 520 70C500 70 480 90 460 90C440 90 420 60 400 60C380 60 360 110 340 110C320 110 300 80 280 80C260 80 240 100 220 100C200 100 180 70 160 70C140 70 120 90 100 90C80 90 60 60 40 60C20 60 0 100 0 100V180Z" fill="#2196F3" fill-opacity="0.1"/>
</svg> 